<svg xmlns="http://www.w3.org/2000/svg" version="1.1" xmlns:xlink="http://www.w3.org/1999/xlink" xmlns:svgjs="http://svgjs.dev/svgjs" width="2000" height="3006" viewBox="0 0 2000 3006"><g transform="matrix(1,0,0,1,-2.178875598086165,-4.848387096774331)"><svg viewBox="0 0 165 248" data-background-color="#ffffff" preserveAspectRatio="xMidYMid meet" height="3006" width="2000" xmlns="http://www.w3.org/2000/svg" xmlns:xlink="http://www.w3.org/1999/xlink"><g id="tight-bounds" transform="matrix(1,0,0,1,0.1797572368421072,0.4000000000000057)"><svg viewBox="0 0 164.64048552631579 247.2" height="247.2" width="164.64048552631579"><g><svg viewBox="0 0 164.64048552631579 247.2" height="247.2" width="164.64048552631579"><g><svg viewBox="0 0 164.64048552631579 247.2" height="247.2" width="164.64048552631579"><g id="textblocktransform"><svg viewBox="0 0 164.64048552631579 247.2" height="247.2" width="164.64048552631579" id="textblock"><g><svg viewBox="0 0 164.64048552631579 247.2" height="247.2" width="164.64048552631579"><rect width="164.64048552631579" height="247.2" x="0" y="0" opacity="1" fill="#840028" data-fill-palette-color="tertiary"></rect><g transform="matrix(1,0,0,1,23.607599999999998,23.607599999999998)"><svg width="117.42528552631579" viewBox="1 -29.9 17.85 30.4" height="199.9848" data-palette-color="#ffffff"><path d="M7.45 0.5L7.45 0.5Q4.55 0.5 2.78-1.25 1-3 1-7.55L1-7.55 1-23.15Q1-26.85 3.4-28.38 5.8-29.9 9.8-29.9L9.8-29.9Q13.8-29.9 16.32-28.38 18.85-26.85 18.85-23.15L18.85-23.15 18.85-18.65 11.15-18.65 11.15-23.65Q11.15-24.5 10.85-24.83 10.55-25.15 10.05-25.15L10.05-25.15Q9.55-25.15 9.25-24.83 8.95-24.5 8.95-23.65L8.95-23.65 8.95-5.5Q8.95-4.65 9.25-4.33 9.55-4 10.05-4L10.05-4Q10.55-4 10.85-4.33 11.15-4.65 11.15-5.5L11.15-5.5 11.15-11.1 9.9-11.1 9.9-15.55 18.85-15.55 18.85 0 12.85 0 12.15-3.1Q11.75-1.9 10.63-0.7 9.5 0.5 7.45 0.5ZM8.5-2.25L8.5-2.25 8.5-2.35Q6.85-2.2 6.18-3.53 5.5-4.85 5.55-6.9L5.55-6.9 5.65-14.65 5.5-23.3Q5.45-25.2 6.48-26.23 7.5-27.25 10.1-27.25L10.1-27.25Q12.65-27.25 13.55-26.28 14.45-25.3 14.5-23.65L14.5-23.65 14.55-20.45 14.65-20.45 14.7-23.65Q14.75-25.4 13.78-26.43 12.8-27.45 10.1-27.45L10.1-27.45Q7.4-27.45 6.4-26.38 5.4-25.3 5.3-23.3L5.3-23.3 5.05-14.65 5.35-6.75Q5.45-4.75 6.08-3.4 6.7-2.05 8.5-2.25ZM15.2-13.2L15.3-2.35 15.5-2.35 15.65-13.4 11.95-13.35 11.95-13.25 13.4-13.2 15.2-13.2Z" opacity="1" transform="matrix(1,0,0,1,0,0)" fill="#ffffff" class="wordmark-text-0" data-fill-palette-color="quaternary" id="text-0"></path></svg></g></svg></g></svg></g></svg></g><g></g></svg></g><defs></defs></svg><rect width="164.64048552631579" height="247.2" fill="none" stroke="none" visibility="hidden"></rect></g></svg></g></svg>